<?xml version="1.0" encoding="iso-8859-1"?>
<!-- Generator: Adobe Illustrator 16.0.0, SVG Export Plug-In . SVG Version: 6.00 Build 0)  -->
<!DOCTYPE svg PUBLIC "-//W3C//DTD SVG 1.1//EN" "http://www.w3.org/Graphics/SVG/1.1/DTD/svg11.dtd">
<svg version="1.1" id="Capa_1" xmlns="http://www.w3.org/2000/svg" xmlns:xlink="http://www.w3.org/1999/xlink" x="0px" y="0px"
	 width="398.008px" height="398.008px" viewBox="0 0 398.008 398.008" style="enable-background:new 0 0 398.008 398.008;"
	 xml:space="preserve">
<g>
	<g>
		<path d="M326.59,256.71c3.609-8.377,3.902-15.961,0.891-22.586c-1.172-2.585-2.867-4.996-5.02-7.148
			c-3.621-3.62-7.871-5.887-10.941-7.185c2.357-8.144,1.752-15.261-1.791-21.177c-0.971-1.628-2.193-3.151-3.588-4.578
			c-9.48-9.699-16.645-7.21-16.645-7.21s3.873-15.466-7.336-26.43c-11.209-10.964-21.867-6.279-31.115,3.119l-46.609,46.59
			c-6.584-2.473-16.945-8.701-27.615-7.478c-19.006,2.184-23.959,14.891-26.639,25.528c-6.066,24.031-4.262,59.861-11.127,73.705
			c-8.443,17.022-24.977,31.317-24.977,31.317l64.83,64.83c26.396-26.395,51.791-33.231,70.74-41.16
			c42.942-17.965,64.021-39.473,74.743-51.022C346.625,281.875,329.717,261.087,326.59,256.71z"/>
		<g>
			<path d="M208.979,119.108c-0.382-0.425-0.83-0.782-1.33-1.056l-31.785-17.382l-25.193,22.912l15.674,36.012
				c0.221,0.505,0.521,0.971,0.895,1.378l27.061,29.603l41.809-41.096L208.979,119.108z"/>
			<path d="M197.579,33.478L169.165,1.67c-0.883-0.989-2.123-1.586-3.447-1.661c-1.32-0.079-2.623,0.38-3.611,1.263l-18.719,16.722
				c-2.061,1.84-2.238,5-0.398,7.06l1.785,1.998l-17.451,15.589l-1.785-1.997c-1.838-2.059-4.998-2.238-7.059-0.398l-26.811,23.95
				c-38.432,34.33-30.006,66.33-24.602,78.495c0.773,1.739,2.467,2.889,4.367,2.966c0.068,0.002,0.137,0.004,0.203,0.004
				c1.824,0,3.512-0.996,4.391-2.607c8.355-15.333,16.047-26.718,21.102-31.234c8.51-7.604,16.061-11.623,21.834-11.623
				c3.227,0,5.969,1.236,8.146,3.675L139,117.185l30.541-27.282l-17.373-19.448l17.451-15.589l1.783,1.997
				c1.84,2.06,5,2.238,7.061,0.398l18.719-16.722C199.24,38.698,199.418,35.537,197.579,33.478z"/>
		</g>
	</g>
</g>
<g>
</g>
<g>
</g>
<g>
</g>
<g>
</g>
<g>
</g>
<g>
</g>
<g>
</g>
<g>
</g>
<g>
</g>
<g>
</g>
<g>
</g>
<g>
</g>
<g>
</g>
<g>
</g>
<g>
</g>
</svg>
